	VAiN . P R E S E N T S . . .

Scary Movie 5 2013 CAM XViD - VAiN

iMDB........: http://www.imdb.com/title/tt0795461/
PLOT........: A couple begin to experience some unusual activity
after bringing their newborn son home from the hospital. With the
help of home-surveillance cameras and a team of experts, they learn
they're being stalked by a nefarious demon.


T E C H N i C A L . i N F O . . .    
 
General
Complete name                            : Scary Movie 5 2013 CAM XViD - VAiN\Scary Movie 5 2013 CAM XViD - VAiN.avi
Format                                   : AVI
Format/Info                              : Audio Video Interleave
File size                                : 1.20 GiB
Duration                                 : 1h 10mn
Overall bit rate                         : 2 428 Kbps
Writing application                      : VirtualDubMod 1.5.10.2 (build 2540/release)
Writing library                          : VirtualDubMod build 2540/release

Video
ID                                       : 0
Format                                   : MPEG-4 Visual
Format profile                           : Advanced Simple@L5
Format settings, BVOP                    : 2
Format settings, QPel                    : No
Format settings, GMC                     : No warppoints
Format settings, Matrix                  : Default (MPEG)
Muxing mode                              : Packed bitstream
Codec ID                                 : XVID
Codec ID/Hint                            : XviD
Duration                                 : 1h 10mn
Bit rate                                 : 2 288 Kbps
Width                                    : 720 pixels
Height                                   : 368 pixels
Display aspect ratio                     : 16:9
Original display aspect ratio            : 1.957
Frame rate                               : 29.970 fps
Color space                              : YUV
Chroma subsampling                       : 4:2:0
Bit depth                                : 8 bits
Scan type                                : Progressive
Compression mode                         : Lossy
Bits/(Pixel*Frame)                       : 0.288
Stream size                              : 1.13 GiB (94%)
Writing library                          : XviD 64

Audio
ID                                       : 1
Format                                   : MPEG Audio
Format version                           : Version 1
Format profile                           : Layer 3
Mode                                     : Joint stereo
Mode extension                           : MS Stereo
Codec ID                                 : 55
Codec ID/Hint                            : MP3
Duration                                 : 1h 10mn
Bit rate mode                            : Constant
Bit rate                                 : 128 Kbps
Channel(s)                               : 2 channels
Sampling rate                            : 48.0 KHz
Compression mode                         : Lossy
Stream size                              : 64.9 MiB (5%)
Alignment                                : Aligned on interleaves
Interleave, duration                     : 33 ms (1.00 video frame)
Interleave, preload duration             : 504 ms
Writing library                          : LAME3.99r
Encoding settings                        : -m j -V 4 -q 2 -lowpass 17 -b 128





E N C O D E R S . N O T E S . . .      

SOURCE......: Scary movie 5 CamRipHustleHard 2013 (THANKS)
SAMPLE......: Yes
ADDED NOTE..: Well... Done lots to it, still isnt great,
if u dont like cams u definitely wont like this,
Included 2 samples, i advise u check them both before downloading,
Enjoy..


S C R E E N . S H O T S . . .

 
http://i.imgur.com/1V2EG8R.jpg 
http://i.imgur.com/EzLky6g.jpg 
http://i.imgur.com/sNL9kta.jpg 
http://i.imgur.com/hvhLequ.jpg